<svg
	xmlns="http://www.w3.org/2000/svg" width="41" height="400" viewBox="0 0 41 400">
	<rect x="0" y="0" width="41" height="400" fill="none" stroke="black"/>
	<rect x="6.7" y="20" width="28" height="320" fill="none" stroke="black"/>
	<line x1="8.7" y1="20" x2="8.7" y2="340" stroke="black" stroke-width="0.25"/>
	<line x1="10.7" y1="20" x2="10.7" y2="340" stroke="black" stroke-width="0.25"/>
	<line x1="12.7" y1="20" x2="12.7" y2="340" stroke="black" stroke-width="0.25"/>
	<line x1="14.7" y1="20" x2="14.7" y2="340" stroke="black" stroke-width="0.25"/>
	<line x1="16.7" y1="20" x2="16.7" y2="340" stroke="black" stroke-width="0.25"/>
	<line x1="18.7" y1="20" x2="18.7" y2="340" stroke="black" stroke-width="0.25"/>
	<line x1="20.7" y1="20" x2="20.7" y2="340" stroke="black" stroke-width="0.25"/>
	<line x1="22.7" y1="20" x2="22.7" y2="340" stroke="black" stroke-width="0.25"/>
	<line x1="24.7" y1="20" x2="24.7" y2="340" stroke="black" stroke-width="0.25"/>
	<line x1="26.7" y1="20" x2="26.7" y2="340" stroke="black" stroke-width="0.25"/>
	<line x1="28.7" y1="20" x2="28.7" y2="340" stroke="black" stroke-width="0.25"/>
	<line x1="30.7" y1="20" x2="30.7" y2="340" stroke="black" stroke-width="0.25"/>
	<line x1="32.7" y1="20" x2="32.7" y2="340" stroke="black" stroke-width="0.25"/>
	<circle cx="22.5" cy="20" r="1"/>
	<circle cx="26.5" cy="23" r="1"/>
	<circle cx="20.5" cy="26" r="1"/>
	<circle cx="20.5" cy="29" r="1"/>
	<circle cx="20.5" cy="32" r="1"/>
	<circle cx="6.5" cy="32" r="1"/>
	<circle cx="10.5" cy="32" r="1"/>
	<circle cx="14.5" cy="32" r="1"/>
	<circle cx="20.5" cy="35" r="1"/>
	<circle cx="6.5" cy="35" r="1"/>
	<circle cx="10.5" cy="35" r="1"/>
	<circle cx="14.5" cy="35" r="1"/>
	<circle cx="20.5" cy="38" r="1"/>
	<circle cx="6.5" cy="38" r="1"/>
	<circle cx="10.5" cy="38" r="1"/>
	<circle cx="14.5" cy="38" r="1"/>
	<circle cx="24.5" cy="41" r="1"/>
	<circle cx="20.5" cy="44" r="1"/>
	<circle cx="20.5" cy="47" r="1"/>
	<circle cx="20.5" cy="50" r="1"/>
	<circle cx="22.5" cy="53" r="1"/>
	<circle cx="20.5" cy="56" r="1"/>
	<circle cx="20.5" cy="59" r="1"/>
	<circle cx="20.5" cy="62" r="1"/>
	<circle cx="20.5" cy="65" r="1"/>
	<circle cx="20.5" cy="68" r="1"/>
	<circle cx="20.5" cy="71" r="1"/>
	<circle cx="20.5" cy="74" r="1"/>
	<circle cx="20.5" cy="77" r="1"/>
	<circle cx="20.5" cy="80" r="1"/>
	<circle cx="22.5" cy="83" r="1"/>
	<circle cx="22.5" cy="86" r="1"/>
	<circle cx="24.5" cy="89" r="1"/>
	<circle cx="20.5" cy="92" r="1"/>
	<circle cx="6.5" cy="92" r="1"/>
	<circle cx="10.5" cy="92" r="1"/>
	<circle cx="14.5" cy="92" r="1"/>
	<circle cx="28.5" cy="95" r="1"/>
	<circle cx="22.5" cy="98" r="1"/>
	<circle cx="22.5" cy="101" r="1"/>
	<circle cx="22.5" cy="104" r="1"/>
	<circle cx="20.5" cy="107" r="1"/>
	<circle cx="20.5" cy="110" r="1"/>
	<circle cx="26.5" cy="113" r="1"/>
	<circle cx="20.5" cy="116" r="1"/>
	<circle cx="22.5" cy="119" r="1"/>
	<circle cx="22.5" cy="122" r="1"/>
	<circle cx="20.5" cy="125" r="1"/>
	<circle cx="20.5" cy="128" r="1"/>
	<circle cx="20.5" cy="131" r="1"/>
	<circle cx="20.5" cy="134" r="1"/>
	<circle cx="6.5" cy="134" r="1"/>
	<circle cx="10.5" cy="134" r="1"/>
	<circle cx="14.5" cy="134" r="1"/>
	<circle cx="20.5" cy="137" r="1"/>
	<circle cx="20.5" cy="140" r="1"/>
	<circle cx="6.5" cy="140" r="1"/>
	<circle cx="10.5" cy="140" r="1"/>
	<circle cx="14.5" cy="140" r="1"/>
	<circle cx="20.5" cy="143" r="1"/>
	<circle cx="20.5" cy="146" r="1"/>
	<circle cx="20.5" cy="149" r="1"/>
	<circle cx="6.5" cy="149" r="1"/>
	<circle cx="10.5" cy="149" r="1"/>
	<circle cx="14.5" cy="149" r="1"/>
	<circle cx="20.5" cy="152" r="1"/>
	<circle cx="22.5" cy="155" r="1"/>
	<circle cx="20.5" cy="158" r="1"/>
	<circle cx="20.5" cy="161" r="1"/>
	<circle cx="20.5" cy="164" r="1"/>
	<circle cx="20.5" cy="167" r="1"/>
	<circle cx="20.5" cy="170" r="1"/>
	<circle cx="22.5" cy="176" r="1"/>
	<circle cx="20.5" cy="179" r="1"/>
	<circle cx="20.5" cy="182" r="1"/>
	<circle cx="6.5" cy="182" r="1"/>
	<circle cx="10.5" cy="182" r="1"/>
	<circle cx="14.5" cy="182" r="1"/>
	<circle cx="20.5" cy="185" r="1"/>
	<circle cx="22.5" cy="191" r="1"/>
	<circle cx="20.5" cy="194" r="1"/>
	<circle cx="22.5" cy="197" r="1"/>
	<circle cx="20.5" cy="203" r="1"/>
	<circle cx="6.5" cy="203" r="1"/>
	<circle cx="10.5" cy="203" r="1"/>
	<circle cx="14.5" cy="203" r="1"/>
	<circle cx="22.5" cy="206" r="1"/>
	<circle cx="20.5" cy="209" r="1"/>
	<circle cx="20.5" cy="212" r="1"/>
	<circle cx="22.5" cy="215" r="1"/>
	<circle cx="20.5" cy="218" r="1"/>
	<circle cx="22.5" cy="221" r="1"/>
	<circle cx="20.5" cy="224" r="1"/>
	<circle cx="20.5" cy="230" r="1"/>
	<circle cx="20.5" cy="233" r="1"/>
	<circle cx="20.5" cy="236" r="1"/>
	<circle cx="20.5" cy="239" r="1"/>
	<circle cx="22.5" cy="242" r="1"/>
	<circle cx="20.5" cy="245" r="1"/>
	<circle cx="34.5" cy="248" r="1"/>
	<circle cx="24.5" cy="251" r="1"/>
	<circle cx="24.5" cy="254" r="1"/>
	<circle cx="22.5" cy="257" r="1"/>
	<circle cx="20.5" cy="260" r="1"/>
	<circle cx="20.5" cy="263" r="1"/>
	<circle cx="20.5" cy="266" r="1"/>
	<circle cx="20.5" cy="269" r="1"/>
	<circle cx="22.5" cy="272" r="1"/>
	<circle cx="20.5" cy="275" r="1"/>
	<circle cx="20.5" cy="278" r="1"/>
	<circle cx="20.5" cy="281" r="1"/>
	<circle cx="20.5" cy="284" r="1"/>
	<circle cx="22.5" cy="287" r="1"/>
	<circle cx="20.5" cy="290" r="1"/>
	<circle cx="20.5" cy="293" r="1"/>
</svg>