<svg
	xmlns="http://www.w3.org/2000/svg" width="41" height="400" viewBox="0 0 41 400">
	<rect x="0" y="0" width="41" height="400" fill="none" stroke="black"/>
	<rect x="6.7" y="20" width="28" height="320" fill="none" stroke="black"/>
	<line x1="8.7" y1="20" x2="8.7" y2="340" stroke="black" stroke-width="0.25"/>
	<line x1="10.7" y1="20" x2="10.7" y2="340" stroke="black" stroke-width="0.25"/>
	<line x1="12.7" y1="20" x2="12.7" y2="340" stroke="black" stroke-width="0.25"/>
	<line x1="14.7" y1="20" x2="14.7" y2="340" stroke="black" stroke-width="0.25"/>
	<line x1="16.7" y1="20" x2="16.7" y2="340" stroke="black" stroke-width="0.25"/>
	<line x1="18.7" y1="20" x2="18.7" y2="340" stroke="black" stroke-width="0.25"/>
	<line x1="20.7" y1="20" x2="20.7" y2="340" stroke="black" stroke-width="0.25"/>
	<line x1="22.7" y1="20" x2="22.7" y2="340" stroke="black" stroke-width="0.25"/>
	<line x1="24.7" y1="20" x2="24.7" y2="340" stroke="black" stroke-width="0.25"/>
	<line x1="26.7" y1="20" x2="26.7" y2="340" stroke="black" stroke-width="0.25"/>
	<line x1="28.7" y1="20" x2="28.7" y2="340" stroke="black" stroke-width="0.25"/>
	<line x1="30.7" y1="20" x2="30.7" y2="340" stroke="black" stroke-width="0.25"/>
	<line x1="32.7" y1="20" x2="32.7" y2="340" stroke="black" stroke-width="0.25"/>
	<circle cx="22.5" cy="20" r="1"/>
	<circle cx="22.5" cy="23" r="1"/>
	<circle cx="22.5" cy="26" r="1"/>
	<circle cx="22.5" cy="29" r="1"/>
	<circle cx="22.5" cy="32" r="1"/>
	<circle cx="20.5" cy="35" r="1"/>
	<circle cx="30.5" cy="38" r="1"/>
	<circle cx="22.5" cy="41" r="1"/>
	<circle cx="26.5" cy="44" r="1"/>
	<circle cx="20.5" cy="47" r="1"/>
	<circle cx="22.5" cy="50" r="1"/>
	<circle cx="22.5" cy="53" r="1"/>
	<circle cx="20.5" cy="56" r="1"/>
	<circle cx="26.5" cy="59" r="1"/>
	<circle cx="24.5" cy="62" r="1"/>
	<circle cx="20.5" cy="65" r="1"/>
	<circle cx="6.5" cy="65" r="1"/>
	<circle cx="10.5" cy="65" r="1"/>
	<circle cx="14.5" cy="65" r="1"/>
</svg>